<?xml version="1.0" encoding="iso-8859-1"?>
<!-- Generator: Adobe Illustrator 19.0.0, SVG Export Plug-In . SVG Version: 6.00 Build 0)  -->
<svg version="1.1" id="Capa_1" xmlns="http://www.w3.org/2000/svg" xmlns:xlink="http://www.w3.org/1999/xlink" x="0px" y="0px"
	 viewBox="0 0 512 512" style="enable-background:new 0 0 512 512;" xml:space="preserve">
<g>
	<g>
		<path d="M448.873,171.831c2.897-55.046-15.901-105.759-52.933-142.804c-0.007-0.007-0.014-0.015-0.021-0.022
			c-21.422-21.423-57.773-23.908-102.355-6.997c-36.99,14.031-76.74,40.207-113.155,74.35l-31.994-31.994l-21.216,21.214
			l31.994,31.994c-34.143,36.416-60.319,76.165-74.35,113.155c-16.91,44.582-14.425,80.933,6.999,102.355
			c34.561,34.562,81.021,53.247,131.802,53.247c11.335,0,19.674-0.895,23.976-1.386l-14.558,97.056h-42.085V512h240.017v-30.002
			h-42.086l-22.364-149.084c5.239-4.41,10.324-9.068,15.231-13.975C422.177,278.537,446.006,226.293,448.873,171.831z
			 M113.056,311.867c-12.395-12.395-12.454-38.092-0.161-70.5c12.587-33.185,36.344-69.188,67.523-102.57l52.855,52.855
			l21.214-21.214l-52.855-52.855c33.383-31.179,69.387-54.936,102.571-67.524c16.133-6.119,30.601-9.179,42.595-9.179
			c12.1,0,21.681,3.113,27.905,9.339c25.085,25.086-0.691,106.765-77.786,183.862c-36.31,36.31-76.568,63.992-113.361,77.947
			C151.146,324.321,125.451,324.263,113.056,311.867z M263.398,481.998l15.448-102.987c21.107-5.647,41.427-14.49,60.339-26.237
			l19.383,129.224H263.398z M360.56,297.724c-35.152,35.154-80.423,55.877-127.47,58.352c-22.135,1.168-43.398-1.796-62.948-8.56
			c7.704-1.808,15.734-4.281,24.054-7.438c40.675-15.428,84.689-45.538,123.936-84.784c39.246-39.246,69.356-83.261,84.784-123.936
			c3.134-8.262,5.597-16.238,7.403-23.893C431.451,168.931,414.204,244.08,360.56,297.724z"/>
	</g>
</g>
<g>
	<g>
		<path d="M84.769,21.933c-29.244,29.244-29.244,76.829,0,106.073l21.214-21.213c-17.546-17.547-17.546-46.098,0-63.646
			c17.547-17.546,46.098-17.546,63.644,0l21.214-21.214C161.598-7.311,114.014-7.31,84.769,21.933z"/>
	</g>
</g>
<g>
</g>
<g>
</g>
<g>
</g>
<g>
</g>
<g>
</g>
<g>
</g>
<g>
</g>
<g>
</g>
<g>
</g>
<g>
</g>
<g>
</g>
<g>
</g>
<g>
</g>
<g>
</g>
<g>
</g>
</svg>
